<svg width="1500" height="500" viewBox="0 0 1500 500" fill="none" xmlns="http://www.w3.org/2000/svg">
<g clip-path="url(#clip0_1_2)">
<rect width="1500" height="500" fill="#111219"/>
<path d="M1518.11 275.451C1518.11 296.857 1526.61 393.451 1537.5 521C1397.5 521 1102.5 528.5 1066.5 521C1074 476 1182.11 341.951 1320.11 341.951C1420.26 341.951 1463.2 299.357 1518.11 275.451Z" fill="url(#paint0_linear_1_2)"/>
<path d="M682 517.12C649.455 542.057 632.782 517.12 558.5 517.12C484.218 517.12 441 517.12 413 517.12C413 497.514 477.482 464.926 547.5 440.12C635 409.12 720.5 487.62 682 517.12Z" fill="url(#paint1_linear_1_2)"/>
<path d="M1167.65 -6.80518C1199.81 -32.2367 1216.86 -7.55773 1291.14 -8.69352C1365.41 -9.82931 1408.62 -10.4901 1436.62 -10.9182C1436.92 8.68557 1372.94 42.2553 1303.31 68.1294C1216.3 100.464 1129.61 23.2801 1167.65 -6.80518Z" fill="url(#paint2_linear_1_2)"/>
<path d="M334 -21.4639C353 -0.464241 537.031 75.9711 507.5 140.536C484.702 190.38 15.245 182.076 -0.256528 495.036C-0.25623 426.037 -0.256905 123.493 -0.256456 -12.9846C112.743 -12.9853 266.5 -21.4635 334 -21.4639Z" fill="url(#paint3_linear_1_2)"/>
<g filter="url(#filter0_b_1_2)">
<rect width="100" height="500" fill="black" fill-opacity="0.4"/>
</g>
<path d="M703.548 196V126H708.648V196H703.548ZM731.44 196V121.8H736.44V196H731.44ZM756.314 215.8C753.914 215.8 751.647 215.4 749.514 214.6C747.447 213.8 745.681 212.633 744.214 211.1L746.714 207.3C748.047 208.7 749.481 209.733 751.014 210.4C752.614 211.067 754.414 211.4 756.414 211.4C758.814 211.4 760.914 210.733 762.714 209.4C764.581 208.067 766.314 205.633 767.914 202.1L771.514 194.1L772.214 193.2L794.314 143.8H799.414L772.614 203.1C771.214 206.3 769.681 208.8 768.014 210.6C766.414 212.467 764.647 213.8 762.714 214.6C760.781 215.4 758.647 215.8 756.314 215.8ZM771.414 197.3L747.214 143.8H752.514L774.514 192.9L771.414 197.3ZM841.684 196V184.1L841.484 182.3V162.7C841.484 157.833 840.15 154.133 837.484 151.6C834.884 149.067 831.05 147.8 825.984 147.8C822.384 147.8 819.017 148.433 815.884 149.7C812.817 150.9 810.184 152.467 807.984 154.4L805.484 150.8C808.084 148.467 811.217 146.667 814.884 145.4C818.55 144.067 822.384 143.4 826.384 143.4C832.85 143.4 837.817 145.033 841.284 148.3C844.75 151.567 846.484 156.433 846.484 162.9V196H841.684ZM822.884 196.4C819.017 196.4 815.65 195.8 812.784 194.6C809.984 193.333 807.817 191.567 806.284 189.3C804.817 187.033 804.084 184.433 804.084 181.5C804.084 178.833 804.684 176.433 805.884 174.3C807.15 172.1 809.217 170.333 812.084 169C814.95 167.6 818.784 166.9 823.584 166.9H842.784V170.8H823.684C818.284 170.8 814.484 171.8 812.284 173.8C810.15 175.8 809.084 178.3 809.084 181.3C809.084 184.633 810.35 187.3 812.884 189.3C815.417 191.3 818.984 192.3 823.584 192.3C827.984 192.3 831.684 191.3 834.684 189.3C837.75 187.3 840.017 184.4 841.484 180.6L842.884 184C841.484 187.8 839.084 190.833 835.684 193.1C832.35 195.3 828.084 196.4 822.884 196.4ZM856.484 199.6V196H906.484V199.6H856.484ZM921.712 196V126H949.412C956.812 126 963.312 127.5 968.912 130.5C974.512 133.5 978.845 137.633 981.912 142.9C985.045 148.167 986.612 154.2 986.612 161C986.612 167.8 985.045 173.833 981.912 179.1C978.845 184.367 974.512 188.5 968.912 191.5C963.312 194.5 956.812 196 949.412 196H921.712ZM926.812 191.4H949.012C955.612 191.4 961.345 190.1 966.212 187.5C971.078 184.9 974.845 181.333 977.512 176.8C980.178 172.2 981.512 166.933 981.512 161C981.512 155.067 980.178 149.833 977.512 145.3C974.845 140.7 971.078 137.1 966.212 134.5C961.345 131.9 955.612 130.6 949.012 130.6H926.812V191.4ZM1023.93 196.4C1018.66 196.4 1014 195.267 1009.93 193C1005.93 190.733 1002.76 187.6 1000.43 183.6C998.162 179.6 997.029 175.033 997.029 169.9C997.029 164.7 998.096 160.133 1000.23 156.2C1002.43 152.2 1005.43 149.067 1009.23 146.8C1013.03 144.533 1017.3 143.4 1022.03 143.4C1026.76 143.4 1031 144.5 1034.73 146.7C1038.53 148.9 1041.5 152 1043.63 156C1045.83 159.933 1046.93 164.5 1046.93 169.7C1046.93 169.9 1046.9 170.133 1046.83 170.4C1046.83 170.6 1046.83 170.833 1046.83 171.1H1000.73V167.2H1044.13L1042.13 169.1C1042.2 165.033 1041.33 161.4 1039.53 158.2C1037.8 154.933 1035.43 152.4 1032.43 150.6C1029.43 148.733 1025.96 147.8 1022.03 147.8C1018.16 147.8 1014.7 148.733 1011.63 150.6C1008.63 152.4 1006.26 154.933 1004.53 158.2C1002.8 161.4 1001.93 165.067 1001.93 169.2V170.1C1001.93 174.367 1002.86 178.167 1004.73 181.5C1006.66 184.767 1009.3 187.333 1012.63 189.2C1015.96 191 1019.76 191.9 1024.03 191.9C1027.36 191.9 1030.46 191.3 1033.33 190.1C1036.26 188.9 1038.73 187.067 1040.73 184.6L1043.63 187.9C1041.36 190.7 1038.5 192.833 1035.03 194.3C1031.63 195.7 1027.93 196.4 1023.93 196.4ZM1074.62 196L1051.12 143.8H1056.42L1078.42 193.2H1076.02L1098.22 143.8H1103.32L1079.72 196H1074.62Z" fill="white"/>
<line x1="659" y1="236.5" x2="1137" y2="236.5" stroke="white" stroke-width="3"/>
<path d="M773.936 455.531L770.906 469.809C770.68 470.815 770.1 471.042 769.262 470.588L764.717 467.213L762.492 469.355C762.267 469.582 762.041 469.809 761.525 469.809L761.88 465.104L770.358 457.348C770.712 456.991 770.261 456.861 769.81 457.153L759.269 463.838L754.723 462.443C753.724 462.118 753.724 461.437 754.949 460.982L772.614 454.07C773.485 453.811 774.226 454.265 773.936 455.531Z" fill="white"/>
<path d="M791.081 473C789.708 473 788.455 472.773 787.321 472.32C786.188 471.88 785.208 471.253 784.381 470.44C783.568 469.64 782.935 468.687 782.481 467.58C782.041 466.46 781.821 465.24 781.821 463.92C781.821 462.587 782.041 461.373 782.481 460.28C782.935 459.173 783.575 458.22 784.401 457.42C785.241 456.607 786.235 455.98 787.381 455.54C788.528 455.1 789.788 454.88 791.161 454.88C792.521 454.88 793.761 455.093 794.881 455.52C796.015 455.947 796.995 456.553 797.821 457.34C798.648 458.113 799.281 459.04 799.721 460.12C800.175 461.2 800.401 462.393 800.401 463.7C800.401 464.82 800.268 465.787 800.001 466.6C799.748 467.4 799.375 468.02 798.881 468.46C798.388 468.887 797.795 469.1 797.101 469.1C796.421 469.1 795.875 468.893 795.461 468.48C795.048 468.067 794.841 467.487 794.841 466.74V465.16L795.001 463.88L794.801 461.88V458.86H796.101V466.44C796.101 467 796.221 467.393 796.461 467.62C796.701 467.847 796.995 467.96 797.341 467.96C797.755 467.96 798.115 467.793 798.421 467.46C798.728 467.127 798.961 466.647 799.121 466.02C799.295 465.38 799.381 464.613 799.381 463.72C799.381 462.547 799.181 461.48 798.781 460.52C798.381 459.56 797.815 458.733 797.081 458.04C796.348 457.347 795.481 456.82 794.481 456.46C793.481 456.087 792.375 455.9 791.161 455.9C789.948 455.9 788.835 456.093 787.821 456.48C786.808 456.867 785.935 457.42 785.201 458.14C784.481 458.847 783.921 459.693 783.521 460.68C783.121 461.653 782.921 462.733 782.921 463.92C782.921 465.107 783.115 466.193 783.501 467.18C783.901 468.167 784.461 469.013 785.181 469.72C785.901 470.44 786.761 470.993 787.761 471.38C788.761 471.78 789.868 471.98 791.081 471.98C791.681 471.98 792.321 471.907 793.001 471.76C793.695 471.613 794.335 471.393 794.921 471.1L795.261 472.08C794.661 472.387 793.981 472.613 793.221 472.76C792.461 472.92 791.748 473 791.081 473ZM790.841 469.1C789.895 469.1 789.048 468.88 788.301 468.44C787.555 467.987 786.961 467.373 786.521 466.6C786.095 465.813 785.881 464.92 785.881 463.92C785.881 462.92 786.095 462.033 786.521 461.26C786.961 460.487 787.555 459.88 788.301 459.44C789.048 459 789.895 458.78 790.841 458.78C791.761 458.78 792.575 458.987 793.281 459.4C794.001 459.813 794.561 460.407 794.961 461.18C795.375 461.94 795.581 462.853 795.581 463.92C795.581 464.987 795.375 465.907 794.961 466.68C794.561 467.453 794.008 468.053 793.301 468.48C792.595 468.893 791.775 469.1 790.841 469.1ZM791.021 467.94C791.741 467.94 792.388 467.773 792.961 467.44C793.548 467.107 794.001 466.64 794.321 466.04C794.655 465.427 794.821 464.72 794.821 463.92C794.821 463.107 794.655 462.407 794.321 461.82C794.001 461.22 793.548 460.76 792.961 460.44C792.388 460.107 791.741 459.94 791.021 459.94C790.275 459.94 789.615 460.107 789.041 460.44C788.468 460.76 788.015 461.22 787.681 461.82C787.361 462.42 787.201 463.12 787.201 463.92C787.201 464.72 787.361 465.42 787.681 466.02C788.015 466.62 788.468 467.093 789.041 467.44C789.615 467.773 790.275 467.94 791.021 467.94ZM803.725 469V455H805.205V469H803.725ZM809.46 469V454.16H810.88V469H809.46ZM814.912 472.98C814.418 472.98 813.945 472.9 813.492 472.74C813.052 472.58 812.672 472.34 812.352 472.02L813.012 470.96C813.278 471.213 813.565 471.407 813.872 471.54C814.192 471.687 814.545 471.76 814.932 471.76C815.398 471.76 815.798 471.627 816.132 471.36C816.478 471.107 816.805 470.653 817.112 470L817.792 468.46L817.952 468.24L822.272 458.5H823.672L818.412 470.26C818.118 470.94 817.792 471.48 817.432 471.88C817.085 472.28 816.705 472.56 816.292 472.72C815.878 472.893 815.418 472.98 814.912 472.98ZM817.712 469.3L812.872 458.5H814.352L818.632 468.14L817.712 469.3ZM831.939 469V466.68L831.879 466.3V462.42C831.879 461.527 831.626 460.84 831.119 460.36C830.626 459.88 829.886 459.64 828.899 459.64C828.219 459.64 827.572 459.753 826.959 459.98C826.346 460.207 825.826 460.507 825.399 460.88L824.759 459.82C825.292 459.367 825.932 459.02 826.679 458.78C827.426 458.527 828.212 458.4 829.039 458.4C830.399 458.4 831.446 458.74 832.179 459.42C832.926 460.087 833.299 461.107 833.299 462.48V469H831.939ZM828.319 469.1C827.532 469.1 826.846 468.973 826.259 468.72C825.686 468.453 825.246 468.093 824.939 467.64C824.632 467.173 824.479 466.64 824.479 466.04C824.479 465.493 824.606 465 824.859 464.56C825.126 464.107 825.552 463.747 826.139 463.48C826.739 463.2 827.539 463.06 828.539 463.06H832.159V464.12H828.579C827.566 464.12 826.859 464.3 826.459 464.66C826.072 465.02 825.879 465.467 825.879 466C825.879 466.6 826.112 467.08 826.579 467.44C827.046 467.8 827.699 467.98 828.539 467.98C829.339 467.98 830.026 467.8 830.599 467.44C831.186 467.067 831.612 466.533 831.879 465.84L832.199 466.82C831.932 467.513 831.466 468.067 830.799 468.48C830.146 468.893 829.319 469.1 828.319 469.1ZM835.176 469.96V469H845.176V469.96H835.176ZM850.769 469.1C849.769 469.1 848.869 468.873 848.069 468.42C847.283 467.967 846.663 467.34 846.209 466.54C845.756 465.727 845.529 464.793 845.529 463.74C845.529 462.673 845.756 461.74 846.209 460.94C846.663 460.14 847.283 459.52 848.069 459.08C848.869 458.627 849.769 458.4 850.769 458.4C851.689 458.4 852.509 458.607 853.229 459.02C853.963 459.433 854.543 460.04 854.969 460.84C855.409 461.627 855.629 462.593 855.629 463.74C855.629 464.873 855.416 465.84 854.989 466.64C854.563 467.44 853.983 468.053 853.249 468.48C852.529 468.893 851.703 469.1 850.769 469.1ZM850.869 467.84C851.616 467.84 852.283 467.673 852.869 467.34C853.469 466.993 853.936 466.513 854.269 465.9C854.616 465.273 854.789 464.553 854.789 463.74C854.789 462.913 854.616 462.193 854.269 461.58C853.936 460.967 853.469 460.493 852.869 460.16C852.283 459.813 851.616 459.64 850.869 459.64C850.136 459.64 849.476 459.813 848.889 460.16C848.303 460.493 847.836 460.967 847.489 461.58C847.143 462.193 846.969 462.913 846.969 463.74C846.969 464.553 847.143 465.273 847.489 465.9C847.836 466.513 848.303 466.993 848.889 467.34C849.476 467.673 850.136 467.84 850.869 467.84ZM854.829 469V465.84L854.969 463.72L854.769 461.6V454.16H856.189V469H854.829ZM864.604 469.1C863.511 469.1 862.551 468.873 861.724 468.42C860.897 467.953 860.251 467.32 859.784 466.52C859.317 465.707 859.084 464.78 859.084 463.74C859.084 462.7 859.304 461.78 859.744 460.98C860.197 460.18 860.811 459.553 861.584 459.1C862.371 458.633 863.251 458.4 864.224 458.4C865.211 458.4 866.084 458.627 866.844 459.08C867.617 459.52 868.224 460.147 868.664 460.96C869.104 461.76 869.324 462.687 869.324 463.74C869.324 463.807 869.317 463.88 869.304 463.96C869.304 464.027 869.304 464.1 869.304 464.18H860.164V463.12H868.544L867.984 463.54C867.984 462.78 867.817 462.107 867.484 461.52C867.164 460.92 866.724 460.453 866.164 460.12C865.604 459.787 864.957 459.62 864.224 459.62C863.504 459.62 862.857 459.787 862.284 460.12C861.711 460.453 861.264 460.92 860.944 461.52C860.624 462.12 860.464 462.807 860.464 463.58V463.8C860.464 464.6 860.637 465.307 860.984 465.92C861.344 466.52 861.837 466.993 862.464 467.34C863.104 467.673 863.831 467.84 864.644 467.84C865.284 467.84 865.877 467.727 866.424 467.5C866.984 467.273 867.464 466.927 867.864 466.46L868.664 467.38C868.197 467.94 867.611 468.367 866.904 468.66C866.211 468.953 865.444 469.1 864.604 469.1ZM874.719 469L870.059 458.5H871.539L875.819 468.24H875.119L879.459 458.5H880.859L876.179 469H874.719ZM887.026 469.1C885.933 469.1 884.973 468.873 884.146 468.42C883.319 467.953 882.673 467.32 882.206 466.52C881.739 465.707 881.506 464.78 881.506 463.74C881.506 462.7 881.726 461.78 882.166 460.98C882.619 460.18 883.233 459.553 884.006 459.1C884.793 458.633 885.673 458.4 886.646 458.4C887.633 458.4 888.506 458.627 889.266 459.08C890.039 459.52 890.646 460.147 891.086 460.96C891.526 461.76 891.746 462.687 891.746 463.74C891.746 463.807 891.739 463.88 891.726 463.96C891.726 464.027 891.726 464.1 891.726 464.18H882.586V463.12H890.966L890.406 463.54C890.406 462.78 890.239 462.107 889.906 461.52C889.586 460.92 889.146 460.453 888.586 460.12C888.026 459.787 887.379 459.62 886.646 459.62C885.926 459.62 885.279 459.787 884.706 460.12C884.133 460.453 883.686 460.92 883.366 461.52C883.046 462.12 882.886 462.807 882.886 463.58V463.8C882.886 464.6 883.059 465.307 883.406 465.92C883.766 466.52 884.259 466.993 884.886 467.34C885.526 467.673 886.253 467.84 887.066 467.84C887.706 467.84 888.299 467.727 888.846 467.5C889.406 467.273 889.886 466.927 890.286 466.46L891.086 467.38C890.619 467.94 890.033 468.367 889.326 468.66C888.633 468.953 887.866 469.1 887.026 469.1ZM894.636 469V454.16H896.056V469H894.636ZM904.287 469.1C903.274 469.1 902.361 468.873 901.547 468.42C900.747 467.953 900.114 467.32 899.647 466.52C899.181 465.707 898.947 464.78 898.947 463.74C898.947 462.687 899.181 461.76 899.647 460.96C900.114 460.16 900.747 459.533 901.547 459.08C902.347 458.627 903.261 458.4 904.287 458.4C905.327 458.4 906.247 458.627 907.047 459.08C907.861 459.533 908.494 460.16 908.947 460.96C909.414 461.76 909.647 462.687 909.647 463.74C909.647 464.78 909.414 465.707 908.947 466.52C908.494 467.32 907.861 467.953 907.047 468.42C906.234 468.873 905.314 469.1 904.287 469.1ZM904.287 467.84C905.047 467.84 905.721 467.673 906.307 467.34C906.894 466.993 907.354 466.513 907.687 465.9C908.034 465.273 908.207 464.553 908.207 463.74C908.207 462.913 908.034 462.193 907.687 461.58C907.354 460.967 906.894 460.493 906.307 460.16C905.721 459.813 905.054 459.64 904.307 459.64C903.561 459.64 902.894 459.813 902.307 460.16C901.721 460.493 901.254 460.967 900.907 461.58C900.561 462.193 900.387 462.913 900.387 463.74C900.387 464.553 900.561 465.273 900.907 465.9C901.254 466.513 901.721 466.993 902.307 467.34C902.894 467.673 903.554 467.84 904.287 467.84ZM917.966 469.1C917.06 469.1 916.24 468.893 915.506 468.48C914.773 468.053 914.186 467.447 913.746 466.66C913.32 465.86 913.106 464.887 913.106 463.74C913.106 462.593 913.32 461.627 913.746 460.84C914.173 460.04 914.753 459.433 915.486 459.02C916.22 458.607 917.046 458.4 917.966 458.4C918.966 458.4 919.86 458.627 920.646 459.08C921.446 459.52 922.073 460.147 922.526 460.96C922.98 461.76 923.206 462.687 923.206 463.74C923.206 464.807 922.98 465.74 922.526 466.54C922.073 467.34 921.446 467.967 920.646 468.42C919.86 468.873 918.966 469.1 917.966 469.1ZM912.546 472.88V458.5H913.906V461.66L913.766 463.76L913.966 465.88V472.88H912.546ZM917.866 467.84C918.613 467.84 919.28 467.673 919.866 467.34C920.453 466.993 920.92 466.513 921.266 465.9C921.613 465.273 921.786 464.553 921.786 463.74C921.786 462.927 921.613 462.213 921.266 461.6C920.92 460.987 920.453 460.507 919.866 460.16C919.28 459.813 918.613 459.64 917.866 459.64C917.12 459.64 916.446 459.813 915.846 460.16C915.26 460.507 914.793 460.987 914.446 461.6C914.113 462.213 913.946 462.927 913.946 463.74C913.946 464.553 914.113 465.273 914.446 465.9C914.793 466.513 915.26 466.993 915.846 467.34C916.446 467.673 917.12 467.84 917.866 467.84ZM930.561 469.1C929.468 469.1 928.508 468.873 927.681 468.42C926.854 467.953 926.208 467.32 925.741 466.52C925.274 465.707 925.041 464.78 925.041 463.74C925.041 462.7 925.261 461.78 925.701 460.98C926.154 460.18 926.768 459.553 927.541 459.1C928.328 458.633 929.208 458.4 930.181 458.4C931.168 458.4 932.041 458.627 932.801 459.08C933.574 459.52 934.181 460.147 934.621 460.96C935.061 461.76 935.281 462.687 935.281 463.74C935.281 463.807 935.274 463.88 935.261 463.96C935.261 464.027 935.261 464.1 935.261 464.18H926.121V463.12H934.501L933.941 463.54C933.941 462.78 933.774 462.107 933.441 461.52C933.121 460.92 932.681 460.453 932.121 460.12C931.561 459.787 930.914 459.62 930.181 459.62C929.461 459.62 928.814 459.787 928.241 460.12C927.668 460.453 927.221 460.92 926.901 461.52C926.581 462.12 926.421 462.807 926.421 463.58V463.8C926.421 464.6 926.594 465.307 926.941 465.92C927.301 466.52 927.794 466.993 928.421 467.34C929.061 467.673 929.788 467.84 930.601 467.84C931.241 467.84 931.834 467.727 932.381 467.5C932.941 467.273 933.421 466.927 933.821 466.46L934.621 467.38C934.154 467.94 933.568 468.367 932.861 468.66C932.168 468.953 931.401 469.1 930.561 469.1ZM938.171 469V458.5H939.531V461.36L939.391 460.86C939.685 460.06 940.178 459.453 940.871 459.04C941.565 458.613 942.425 458.4 943.451 458.4V459.78C943.398 459.78 943.345 459.78 943.291 459.78C943.238 459.767 943.185 459.76 943.131 459.76C942.025 459.76 941.158 460.1 940.531 460.78C939.905 461.447 939.591 462.4 939.591 463.64V469H938.171Z" fill="white"/>
<path fill-rule="evenodd" clip-rule="evenodd" d="M49.6667 435C49.6667 430.398 53.3977 426.667 58 426.667C62.6023 426.667 66.3334 430.398 66.3334 435C66.3334 439.602 62.6023 443.333 58 443.333C53.3977 443.333 49.6667 439.602 49.6667 435Z" fill="#1ABCFE"/>
<path fill-rule="evenodd" clip-rule="evenodd" d="M33 451.667C33 447.064 36.731 443.333 41.3333 443.333H49.6667V451.667C49.6667 456.269 45.9356 460 41.3333 460C36.731 460 33 456.269 33 451.667Z" fill="#0ACF83"/>
<path fill-rule="evenodd" clip-rule="evenodd" d="M49.6667 410V426.667H58C62.6023 426.667 66.3334 422.936 66.3334 418.333C66.3334 413.731 62.6023 410 58 410H49.6667Z" fill="#FF7262"/>
<path fill-rule="evenodd" clip-rule="evenodd" d="M33 418.333C33 422.936 36.731 426.667 41.3333 426.667H49.6667V410H41.3333C36.731 410 33 413.731 33 418.333Z" fill="#F24E1E"/>
<path fill-rule="evenodd" clip-rule="evenodd" d="M33 435C33 439.602 36.731 443.333 41.3333 443.333H49.6667V426.667H41.3333C36.731 426.667 33 430.398 33 435Z" fill="#A259FF"/>
<path d="M26.0453 348.524C24.6516 347.13 24.6516 344.87 26.0453 343.476L47.4764 322.045C48.8702 320.652 51.1298 320.652 52.5236 322.045L73.9547 343.476C75.3484 344.87 75.3484 347.13 73.9547 348.524L52.5236 369.955C51.1298 371.348 48.8702 371.348 47.4764 369.955L26.0453 348.524Z" fill="#EE513B"/>
<path d="M43.123 326.467L40.9528 328.637L46.558 334.242C46.3312 334.729 46.2046 335.271 46.2046 335.844C46.2046 337.468 47.2251 338.854 48.66 339.395V353.107C47.2251 353.648 46.2046 355.034 46.2046 356.658C46.2046 358.754 47.9035 360.453 49.9993 360.453C52.095 360.453 53.7939 358.754 53.7939 356.658C53.7939 355.186 52.9551 353.909 51.7293 353.28V339.414L57.0873 344.772C56.8716 345.248 56.7516 345.778 56.7516 346.335C56.7516 348.43 58.4505 350.129 60.5462 350.129C62.6419 350.129 64.3409 348.43 64.3409 346.335C64.3409 344.239 62.6419 342.54 60.5462 342.54C60.1389 342.54 59.7468 342.604 59.3789 342.723L53.6244 336.968C53.7346 336.613 53.7939 336.235 53.7939 335.844C53.7939 333.748 52.095 332.049 49.9993 332.049C49.6076 332.049 49.23 332.108 48.8744 332.218L43.123 326.467Z" fill="white"/>
<path d="M29.1667 275.083L25 223H75L70.8333 275.083L50 281.333L29.1667 275.083Z" fill="#E44D26"/>
<path d="M70.8333 227.167H50V278.208L66.6667 273L70.8333 227.167Z" fill="#F16529"/>
<path d="M36.4583 253.208L34.375 233.417H66.6667L65.625 239.667H40.625L41.6667 246.958H64.5833L62.5 266.75L50 270.917L37.5 266.75L36.4583 256.333H42.7083L43.75 261.542L50 263.625L56.25 261.542L57.2917 253.208H36.4583Z" fill="white"/>
<path d="M29.1667 178.083L25 126H75L70.8333 178.083L50 184.333L29.1667 178.083Z" fill="#1172B8"/>
<path d="M70.8333 130.167H50V181.208L66.6667 176L70.8333 130.167Z" fill="#33AADD"/>
<path d="M57.2917 156.208H36.4583L35.4167 148.917L52.0833 143.708H35.4167L34.375 137.458H66.6667L65.625 144.75L52.0833 149.958H64.5833L62.5 169.75L50 173.917L37.5 169.75L36.4583 159.333H42.7083L43.75 164.542L50 166.625L56.25 164.542L57.2917 156.208Z" fill="white"/>
<path d="M49.8203 38C37.1266 38 37.9187 43.5336 37.9187 43.5336L37.9344 49.2666H50.0469V50.9865H33.1203C33.1203 50.9865 25 50.0598 25 62.9364C25 75.8098 32.0891 75.3543 32.0891 75.3543H36.3203V69.3794C36.3203 69.3794 36.0922 62.2531 43.2969 62.2531H55.3094C55.3094 62.2531 62.0594 62.3631 62.0594 55.6955V44.6708C62.0594 44.6708 63.0844 38 49.8203 38ZM43.1406 41.8545C44.3453 41.8545 45.3203 42.8346 45.3203 44.0456C45.3203 45.2566 44.3453 46.2367 43.1406 46.2367C42.8543 46.2371 42.5706 46.1808 42.306 46.0708C42.0414 45.9608 41.8009 45.7994 41.5984 45.5959C41.3959 45.3923 41.2354 45.1506 41.126 44.8846C41.0166 44.6186 40.9605 44.3335 40.9609 44.0456C40.9609 42.8346 41.9359 41.8545 43.1406 41.8545Z" fill="url(#paint4_linear_1_2)"/>
<path d="M50.1797 88C62.8734 88 62.0812 82.4664 62.0812 82.4664L62.0656 76.7334H49.9531V75.0135H66.8781C66.8781 75.0135 75 75.9402 75 63.0652C75 50.1902 67.9109 50.6473 67.9109 50.6473H63.6797V56.6206C63.6797 56.6206 63.9078 63.7469 56.7031 63.7469H44.6906C44.6906 63.7469 37.9406 63.6369 37.9406 70.3045V81.3293C37.9406 81.3293 36.9156 88 50.1797 88ZM56.8594 84.1455C56.573 84.1459 56.2894 84.0895 56.0247 83.9796C55.7601 83.8696 55.5197 83.7082 55.3172 83.5047C55.1147 83.3011 54.9541 83.0594 54.8447 82.7934C54.7354 82.5274 54.6793 82.2423 54.6797 81.9544C54.6797 80.745 55.6547 79.7648 56.8594 79.7648C58.064 79.7648 59.039 80.7434 59.039 81.9544C59.039 83.167 58.064 84.1455 56.8594 84.1455Z" fill="url(#paint5_linear_1_2)"/>
<path d="M637.996 274V256.5H645.546C647.496 256.5 649.005 256.892 650.071 257.675C651.155 258.458 651.696 259.567 651.696 261C651.696 261.95 651.471 262.75 651.021 263.4C650.588 264.05 649.988 264.542 649.221 264.875C648.471 265.208 647.646 265.375 646.746 265.375L647.171 264.775C648.288 264.775 649.246 264.95 650.046 265.3C650.863 265.633 651.496 266.142 651.946 266.825C652.396 267.492 652.621 268.325 652.621 269.325C652.621 270.808 652.071 271.958 650.971 272.775C649.888 273.592 648.246 274 646.046 274H637.996ZM639.846 272.475H646.021C647.555 272.475 648.73 272.217 649.546 271.7C650.363 271.167 650.771 270.325 650.771 269.175C650.771 268.042 650.363 267.217 649.546 266.7C648.73 266.167 647.555 265.9 646.021 265.9H639.646V264.375H645.421C646.821 264.375 647.905 264.108 648.671 263.575C649.455 263.042 649.846 262.25 649.846 261.2C649.846 260.133 649.455 259.342 648.671 258.825C647.905 258.292 646.821 258.025 645.421 258.025H639.846V272.475ZM664.694 274V271.1L664.619 270.625V265.775C664.619 264.658 664.302 263.8 663.669 263.2C663.052 262.6 662.127 262.3 660.894 262.3C660.044 262.3 659.236 262.442 658.469 262.725C657.702 263.008 657.052 263.383 656.519 263.85L655.719 262.525C656.386 261.958 657.186 261.525 658.119 261.225C659.052 260.908 660.036 260.75 661.069 260.75C662.769 260.75 664.077 261.175 664.994 262.025C665.927 262.858 666.394 264.133 666.394 265.85V274H664.694ZM660.169 274.125C659.186 274.125 658.327 273.967 657.594 273.65C656.877 273.317 656.327 272.867 655.944 272.3C655.561 271.717 655.369 271.05 655.369 270.3C655.369 269.617 655.527 269 655.844 268.45C656.177 267.883 656.711 267.433 657.444 267.1C658.194 266.75 659.194 266.575 660.444 266.575H664.969V267.9H660.494C659.227 267.9 658.344 268.125 657.844 268.575C657.361 269.025 657.119 269.583 657.119 270.25C657.119 271 657.411 271.6 657.994 272.05C658.577 272.5 659.394 272.725 660.444 272.725C661.444 272.725 662.302 272.5 663.019 272.05C663.752 271.583 664.286 270.917 664.619 270.05L665.019 271.275C664.686 272.142 664.102 272.833 663.269 273.35C662.452 273.867 661.419 274.125 660.169 274.125ZM676.665 274.125C675.365 274.125 674.199 273.842 673.165 273.275C672.149 272.692 671.349 271.9 670.765 270.9C670.182 269.883 669.89 268.725 669.89 267.425C669.89 266.108 670.182 264.95 670.765 263.95C671.349 262.95 672.149 262.167 673.165 261.6C674.199 261.033 675.365 260.75 676.665 260.75C677.782 260.75 678.79 260.967 679.69 261.4C680.59 261.833 681.299 262.483 681.815 263.35L680.49 264.25C680.04 263.583 679.482 263.092 678.815 262.775C678.149 262.458 677.424 262.3 676.64 262.3C675.707 262.3 674.865 262.517 674.115 262.95C673.365 263.367 672.774 263.958 672.34 264.725C671.907 265.492 671.69 266.392 671.69 267.425C671.69 268.458 671.907 269.358 672.34 270.125C672.774 270.892 673.365 271.492 674.115 271.925C674.865 272.342 675.707 272.55 676.64 272.55C677.424 272.55 678.149 272.392 678.815 272.075C679.482 271.758 680.04 271.275 680.49 270.625L681.815 271.525C681.299 272.375 680.59 273.025 679.69 273.475C678.79 273.908 677.782 274.125 676.665 274.125ZM686.507 270.6L686.557 268.325L694.732 260.875H696.907L691.132 266.4L690.132 267.25L686.507 270.6ZM685.107 274V255.45H686.882V274H685.107ZM695.282 274L689.807 267.175L690.957 265.8L697.457 274H695.282ZM705.184 274.125C703.817 274.125 702.617 273.842 701.584 273.275C700.55 272.692 699.742 271.9 699.159 270.9C698.575 269.883 698.284 268.725 698.284 267.425C698.284 266.125 698.559 264.975 699.109 263.975C699.675 262.975 700.442 262.192 701.409 261.625C702.392 261.042 703.492 260.75 704.709 260.75C705.942 260.75 707.034 261.033 707.984 261.6C708.95 262.15 709.709 262.933 710.259 263.95C710.809 264.95 711.084 266.108 711.084 267.425C711.084 267.508 711.075 267.6 711.059 267.7C711.059 267.783 711.059 267.875 711.059 267.975H699.634V266.65H710.109L709.409 267.175C709.409 266.225 709.2 265.383 708.784 264.65C708.384 263.9 707.834 263.317 707.134 262.9C706.434 262.483 705.625 262.275 704.709 262.275C703.809 262.275 703 262.483 702.284 262.9C701.567 263.317 701.009 263.9 700.609 264.65C700.209 265.4 700.009 266.258 700.009 267.225V267.5C700.009 268.5 700.225 269.383 700.659 270.15C701.109 270.9 701.725 271.492 702.509 271.925C703.309 272.342 704.217 272.55 705.234 272.55C706.034 272.55 706.775 272.408 707.459 272.125C708.159 271.842 708.759 271.408 709.259 270.825L710.259 271.975C709.675 272.675 708.942 273.208 708.059 273.575C707.192 273.942 706.234 274.125 705.184 274.125ZM721.397 260.75C722.463 260.75 723.397 260.958 724.197 261.375C725.013 261.775 725.647 262.392 726.097 263.225C726.563 264.058 726.797 265.108 726.797 266.375V274H725.022V266.55C725.022 265.167 724.672 264.125 723.972 263.425C723.288 262.708 722.322 262.35 721.072 262.35C720.138 262.35 719.322 262.542 718.622 262.925C717.938 263.292 717.405 263.833 717.022 264.55C716.655 265.25 716.472 266.1 716.472 267.1V274H714.697V260.875H716.397V264.475L716.122 263.8C716.538 262.85 717.205 262.108 718.122 261.575C719.038 261.025 720.13 260.75 721.397 260.75ZM736.816 274.125C735.566 274.125 734.441 273.842 733.441 273.275C732.458 272.708 731.683 271.925 731.116 270.925C730.55 269.908 730.266 268.742 730.266 267.425C730.266 266.092 730.55 264.925 731.116 263.925C731.683 262.925 732.458 262.15 733.441 261.6C734.441 261.033 735.566 260.75 736.816 260.75C737.966 260.75 738.991 261.008 739.891 261.525C740.808 262.042 741.533 262.8 742.066 263.8C742.616 264.783 742.891 265.992 742.891 267.425C742.891 268.842 742.625 270.05 742.091 271.05C741.558 272.05 740.833 272.817 739.916 273.35C739.016 273.867 737.983 274.125 736.816 274.125ZM736.941 272.55C737.875 272.55 738.708 272.342 739.441 271.925C740.191 271.492 740.775 270.892 741.191 270.125C741.625 269.342 741.841 268.442 741.841 267.425C741.841 266.392 741.625 265.492 741.191 264.725C740.775 263.958 740.191 263.367 739.441 262.95C738.708 262.517 737.875 262.3 736.941 262.3C736.025 262.3 735.2 262.517 734.466 262.95C733.733 263.367 733.15 263.958 732.716 264.725C732.283 265.492 732.066 266.392 732.066 267.425C732.066 268.442 732.283 269.342 732.716 270.125C733.15 270.892 733.733 271.492 734.466 271.925C735.2 272.342 736.025 272.55 736.941 272.55ZM741.891 274V270.05L742.066 267.4L741.816 264.75V255.45H743.591V274H741.891ZM754.678 274V256.5H762.253C763.819 256.5 765.169 256.758 766.303 257.275C767.436 257.775 768.311 258.5 768.928 259.45C769.544 260.4 769.853 261.533 769.853 262.85C769.853 264.15 769.544 265.275 768.928 266.225C768.311 267.175 767.436 267.908 766.303 268.425C765.169 268.925 763.819 269.175 762.253 269.175H756.928L758.728 267.35V274H754.678ZM758.728 267.8L756.928 265.875H762.028C763.278 265.875 764.211 265.608 764.828 265.075C765.444 264.542 765.753 263.8 765.753 262.85C765.753 261.883 765.444 261.133 764.828 260.6C764.211 260.067 763.278 259.8 762.028 259.8H756.928L758.728 257.875V267.8ZM774.34 279.05C773.64 279.05 772.948 278.942 772.265 278.725C771.582 278.508 771.023 278.208 770.59 277.825L772.015 275.05C772.315 275.317 772.657 275.525 773.04 275.675C773.44 275.825 773.832 275.9 774.215 275.9C774.765 275.9 775.198 275.767 775.515 275.5C775.848 275.25 776.148 274.825 776.415 274.225L777.115 272.575L777.415 272.15L782.24 260.55H785.99L779.915 274.825C779.482 275.908 778.982 276.758 778.415 277.375C777.865 277.992 777.248 278.425 776.565 278.675C775.898 278.925 775.157 279.05 774.34 279.05ZM776.64 274.525L770.64 260.55H774.665L779.315 271.8L776.64 274.525ZM793.447 274.2C791.864 274.2 790.631 273.8 789.747 273C788.864 272.183 788.422 270.975 788.422 269.375V257.575H792.322V269.325C792.322 269.892 792.472 270.333 792.772 270.65C793.072 270.95 793.481 271.1 793.997 271.1C794.614 271.1 795.139 270.933 795.572 270.6L796.622 273.35C796.222 273.633 795.739 273.85 795.172 274C794.622 274.133 794.047 274.2 793.447 274.2ZM786.347 263.85V260.85H795.672V263.85H786.347ZM806.987 260.35C808.053 260.35 809.003 260.567 809.837 261C810.687 261.417 811.353 262.067 811.837 262.95C812.32 263.817 812.562 264.933 812.562 266.3V274H808.662V266.9C808.662 265.817 808.42 265.017 807.937 264.5C807.47 263.983 806.803 263.725 805.937 263.725C805.32 263.725 804.762 263.858 804.262 264.125C803.778 264.375 803.395 264.767 803.112 265.3C802.845 265.833 802.712 266.517 802.712 267.35V274H798.812V255.45H802.712V264.275L801.837 263.15C802.32 262.25 803.012 261.558 803.912 261.075C804.812 260.592 805.837 260.35 806.987 260.35ZM822.595 274.2C821.161 274.2 819.886 273.9 818.77 273.3C817.67 272.7 816.795 271.883 816.145 270.85C815.511 269.8 815.195 268.608 815.195 267.275C815.195 265.925 815.511 264.733 816.145 263.7C816.795 262.65 817.67 261.833 818.77 261.25C819.886 260.65 821.161 260.35 822.595 260.35C824.011 260.35 825.278 260.65 826.395 261.25C827.511 261.833 828.386 262.642 829.02 263.675C829.653 264.708 829.97 265.908 829.97 267.275C829.97 268.608 829.653 269.8 829.02 270.85C828.386 271.883 827.511 272.7 826.395 273.3C825.278 273.9 824.011 274.2 822.595 274.2ZM822.595 271C823.245 271 823.828 270.85 824.345 270.55C824.861 270.25 825.27 269.825 825.57 269.275C825.87 268.708 826.02 268.042 826.02 267.275C826.02 266.492 825.87 265.825 825.57 265.275C825.27 264.725 824.861 264.3 824.345 264C823.828 263.7 823.245 263.55 822.595 263.55C821.945 263.55 821.361 263.7 820.845 264C820.328 264.3 819.911 264.725 819.595 265.275C819.295 265.825 819.145 266.492 819.145 267.275C819.145 268.042 819.295 268.708 819.595 269.275C819.911 269.825 820.328 270.25 820.845 270.55C821.361 270.85 821.945 271 822.595 271ZM840.751 260.35C841.818 260.35 842.768 260.567 843.601 261C844.451 261.417 845.118 262.067 845.601 262.95C846.085 263.817 846.326 264.933 846.326 266.3V274H842.426V266.9C842.426 265.817 842.185 265.017 841.701 264.5C841.235 263.983 840.568 263.725 839.701 263.725C839.085 263.725 838.526 263.858 838.026 264.125C837.543 264.375 837.16 264.767 836.876 265.3C836.61 265.833 836.476 266.517 836.476 267.35V274H832.576V260.55H836.301V264.275L835.601 263.15C836.085 262.25 836.776 261.558 837.676 261.075C838.576 260.592 839.601 260.35 840.751 260.35ZM863.904 274.125C862.771 274.125 861.746 273.867 860.829 273.35C859.913 272.817 859.179 272.058 858.629 271.075C858.096 270.075 857.829 268.858 857.829 267.425C857.829 265.992 858.096 264.783 858.629 263.8C859.163 262.8 859.888 262.042 860.804 261.525C861.721 261.008 862.754 260.75 863.904 260.75C865.154 260.75 866.271 261.033 867.254 261.6C868.254 262.15 869.038 262.933 869.604 263.95C870.171 264.95 870.454 266.108 870.454 267.425C870.454 268.758 870.171 269.925 869.604 270.925C869.038 271.925 868.254 272.708 867.254 273.275C866.271 273.842 865.154 274.125 863.904 274.125ZM857.129 278.85V260.875H858.829V264.825L858.654 267.45L858.904 270.1V278.85H857.129ZM863.779 272.55C864.713 272.55 865.546 272.342 866.279 271.925C867.013 271.492 867.596 270.892 868.029 270.125C868.463 269.342 868.679 268.442 868.679 267.425C868.679 266.408 868.463 265.517 868.029 264.75C867.596 263.983 867.013 263.383 866.279 262.95C865.546 262.517 864.713 262.3 863.779 262.3C862.846 262.3 862.004 262.517 861.254 262.95C860.521 263.383 859.938 263.983 859.504 264.75C859.088 265.517 858.879 266.408 858.879 267.425C858.879 268.442 859.088 269.342 859.504 270.125C859.938 270.892 860.521 271.492 861.254 271.925C862.004 272.342 862.846 272.55 863.779 272.55ZM882.345 274V271.1L882.27 270.625V265.775C882.27 264.658 881.953 263.8 881.32 263.2C880.703 262.6 879.778 262.3 878.545 262.3C877.695 262.3 876.887 262.442 876.12 262.725C875.353 263.008 874.703 263.383 874.17 263.85L873.37 262.525C874.037 261.958 874.837 261.525 875.77 261.225C876.703 260.908 877.687 260.75 878.72 260.75C880.42 260.75 881.728 261.175 882.645 262.025C883.578 262.858 884.045 264.133 884.045 265.85V274H882.345ZM877.82 274.125C876.837 274.125 875.978 273.967 875.245 273.65C874.528 273.317 873.978 272.867 873.595 272.3C873.212 271.717 873.02 271.05 873.02 270.3C873.02 269.617 873.178 269 873.495 268.45C873.828 267.883 874.362 267.433 875.095 267.1C875.845 266.75 876.845 266.575 878.095 266.575H882.62V267.9H878.145C876.878 267.9 875.995 268.125 875.495 268.575C875.012 269.025 874.77 269.583 874.77 270.25C874.77 271 875.062 271.6 875.645 272.05C876.228 272.5 877.045 272.725 878.095 272.725C879.095 272.725 879.953 272.5 880.67 272.05C881.403 271.583 881.937 270.917 882.27 270.05L882.67 271.275C882.337 272.142 881.753 272.833 880.92 273.35C880.103 273.867 879.07 274.125 877.82 274.125ZM892.027 274.15C891.077 274.15 890.135 274.017 889.202 273.75C888.268 273.483 887.443 273.075 886.727 272.525L887.302 271.2C887.935 271.667 888.668 272.025 889.502 272.275C890.335 272.508 891.16 272.625 891.977 272.625C892.793 272.608 893.502 272.492 894.102 272.275C894.702 272.058 895.168 271.758 895.502 271.375C895.835 270.992 896.002 270.558 896.002 270.075C896.002 269.375 895.685 268.833 895.052 268.45C894.418 268.05 893.552 267.85 892.452 267.85H890.202V266.55H892.327C892.977 266.55 893.552 266.467 894.052 266.3C894.552 266.133 894.935 265.892 895.202 265.575C895.485 265.258 895.627 264.883 895.627 264.45C895.627 263.983 895.46 263.583 895.127 263.25C894.81 262.917 894.368 262.667 893.802 262.5C893.235 262.333 892.593 262.25 891.877 262.25C891.227 262.267 890.552 262.367 889.852 262.55C889.152 262.717 888.46 262.975 887.777 263.325L887.277 261.95C888.043 261.55 888.802 261.25 889.552 261.05C890.318 260.833 891.085 260.725 891.852 260.725C892.902 260.692 893.843 260.817 894.677 261.1C895.527 261.383 896.202 261.792 896.702 262.325C897.202 262.842 897.452 263.467 897.452 264.2C897.452 264.85 897.252 265.417 896.852 265.9C896.452 266.383 895.918 266.758 895.252 267.025C894.585 267.292 893.827 267.425 892.977 267.425L893.052 266.95C894.552 266.95 895.718 267.242 896.552 267.825C897.402 268.408 897.827 269.2 897.827 270.2C897.827 270.983 897.568 271.675 897.052 272.275C896.535 272.858 895.835 273.317 894.952 273.65C894.085 273.983 893.11 274.15 892.027 274.15ZM908.631 274.125C907.498 274.125 906.473 273.867 905.556 273.35C904.639 272.817 903.906 272.058 903.356 271.075C902.823 270.075 902.556 268.858 902.556 267.425C902.556 265.992 902.823 264.783 903.356 263.8C903.889 262.8 904.614 262.042 905.531 261.525C906.448 261.008 907.481 260.75 908.631 260.75C909.881 260.75 910.998 261.033 911.981 261.6C912.981 262.15 913.764 262.933 914.331 263.95C914.898 264.95 915.181 266.108 915.181 267.425C915.181 268.758 914.898 269.925 914.331 270.925C913.764 271.925 912.981 272.708 911.981 273.275C910.998 273.842 909.881 274.125 908.631 274.125ZM901.856 278.85V260.875H903.556V264.825L903.381 267.45L903.631 270.1V278.85H901.856ZM908.506 272.55C909.439 272.55 910.273 272.342 911.006 271.925C911.739 271.492 912.323 270.892 912.756 270.125C913.189 269.342 913.406 268.442 913.406 267.425C913.406 266.408 913.189 265.517 912.756 264.75C912.323 263.983 911.739 263.383 911.006 262.95C910.273 262.517 909.439 262.3 908.506 262.3C907.573 262.3 906.731 262.517 905.981 262.95C905.248 263.383 904.664 263.983 904.231 264.75C903.814 265.517 903.606 266.408 903.606 267.425C903.606 268.442 903.814 269.342 904.231 270.125C904.664 270.892 905.248 271.492 905.981 271.925C906.731 272.342 907.573 272.55 908.506 272.55ZM927.071 274V271.1L926.996 270.625V265.775C926.996 264.658 926.68 263.8 926.046 263.2C925.43 262.6 924.505 262.3 923.271 262.3C922.421 262.3 921.613 262.442 920.846 262.725C920.08 263.008 919.43 263.383 918.896 263.85L918.096 262.525C918.763 261.958 919.563 261.525 920.496 261.225C921.43 260.908 922.413 260.75 923.446 260.75C925.146 260.75 926.455 261.175 927.371 262.025C928.305 262.858 928.771 264.133 928.771 265.85V274H927.071ZM922.546 274.125C921.563 274.125 920.705 273.967 919.971 273.65C919.255 273.317 918.705 272.867 918.321 272.3C917.938 271.717 917.746 271.05 917.746 270.3C917.746 269.617 917.905 269 918.221 268.45C918.555 267.883 919.088 267.433 919.821 267.1C920.571 266.75 921.571 266.575 922.821 266.575H927.346V267.9H922.871C921.605 267.9 920.721 268.125 920.221 268.575C919.738 269.025 919.496 269.583 919.496 270.25C919.496 271 919.788 271.6 920.371 272.05C920.955 272.5 921.771 272.725 922.821 272.725C923.821 272.725 924.68 272.5 925.396 272.05C926.13 271.583 926.663 270.917 926.996 270.05L927.396 271.275C927.063 272.142 926.48 272.833 925.646 273.35C924.83 273.867 923.796 274.125 922.546 274.125ZM939.397 274.15C938.33 274.15 937.38 273.975 936.547 273.625C935.73 273.275 935.03 272.742 934.447 272.025C933.863 271.308 933.422 270.425 933.122 269.375C932.822 268.308 932.672 267.075 932.672 265.675C932.672 264.425 932.788 263.333 933.022 262.4C933.255 261.45 933.58 260.633 933.997 259.95C934.413 259.267 934.897 258.692 935.447 258.225C936.013 257.742 936.622 257.358 937.272 257.075C937.938 256.775 938.622 256.55 939.322 256.4L945.222 255.025L945.522 256.675L939.972 257.925C939.622 258.008 939.197 258.125 938.697 258.275C938.213 258.425 937.713 258.65 937.197 258.95C936.697 259.25 936.23 259.667 935.797 260.2C935.363 260.733 935.013 261.425 934.747 262.275C934.497 263.108 934.372 264.15 934.372 265.4C934.372 265.667 934.38 265.883 934.397 266.05C934.413 266.2 934.43 266.367 934.447 266.55C934.48 266.717 934.505 266.967 934.522 267.3L933.747 266.65C933.93 265.633 934.305 264.75 934.872 264C935.438 263.233 936.147 262.642 936.997 262.225C937.863 261.792 938.822 261.575 939.872 261.575C941.088 261.575 942.172 261.842 943.122 262.375C944.072 262.892 944.813 263.617 945.347 264.55C945.897 265.483 946.172 266.567 946.172 267.8C946.172 269.017 945.888 270.108 945.322 271.075C944.772 272.042 943.988 272.8 942.972 273.35C941.955 273.883 940.763 274.15 939.397 274.15ZM939.597 272.675C940.53 272.675 941.355 272.467 942.072 272.05C942.788 271.617 943.347 271.033 943.747 270.3C944.163 269.567 944.372 268.742 944.372 267.825C944.372 266.925 944.163 266.125 943.747 265.425C943.347 264.725 942.788 264.175 942.072 263.775C941.355 263.358 940.522 263.15 939.572 263.15C938.638 263.15 937.813 263.35 937.097 263.75C936.38 264.133 935.813 264.675 935.397 265.375C934.997 266.075 934.797 266.883 934.797 267.8C934.797 268.717 934.997 269.542 935.397 270.275C935.813 271.008 936.38 271.592 937.097 272.025C937.83 272.458 938.663 272.675 939.597 272.675ZM955.376 274.125C954.11 274.125 952.968 273.842 951.951 273.275C950.951 272.692 950.16 271.9 949.576 270.9C948.993 269.883 948.701 268.725 948.701 267.425C948.701 266.108 948.993 264.95 949.576 263.95C950.16 262.95 950.951 262.167 951.951 261.6C952.951 261.033 954.093 260.75 955.376 260.75C956.676 260.75 957.826 261.033 958.826 261.6C959.843 262.167 960.635 262.95 961.201 263.95C961.785 264.95 962.076 266.108 962.076 267.425C962.076 268.725 961.785 269.883 961.201 270.9C960.635 271.9 959.843 272.692 958.826 273.275C957.81 273.842 956.66 274.125 955.376 274.125ZM955.376 272.55C956.326 272.55 957.168 272.342 957.901 271.925C958.635 271.492 959.21 270.892 959.626 270.125C960.06 269.342 960.276 268.442 960.276 267.425C960.276 266.392 960.06 265.492 959.626 264.725C959.21 263.958 958.635 263.367 957.901 262.95C957.168 262.517 956.335 262.3 955.401 262.3C954.468 262.3 953.635 262.517 952.901 262.95C952.168 263.367 951.585 263.958 951.151 264.725C950.718 265.492 950.501 266.392 950.501 267.425C950.501 268.442 950.718 269.342 951.151 270.125C951.585 270.892 952.168 271.492 952.901 271.925C953.635 272.342 954.46 272.55 955.376 272.55ZM967.881 274V261.95L968.331 262.425H962.906V260.875H974.631V262.425H969.206L969.656 261.95V274H967.881ZM985.498 268.45C984.731 268.783 983.956 269.05 983.173 269.25C982.406 269.433 981.64 269.525 980.873 269.525C979.323 269.525 978.098 269.175 977.198 268.475C976.298 267.758 975.848 266.658 975.848 265.175V260.875H977.598V265.075C977.598 266.075 977.923 266.825 978.573 267.325C979.223 267.825 980.098 268.075 981.198 268.075C981.865 268.075 982.565 267.992 983.298 267.825C984.031 267.642 984.773 267.383 985.523 267.05L985.498 268.45ZM985.348 274V260.875H987.123V274H985.348ZM992.164 274V260.875H993.939V271.3L1002.71 260.875H1004.29V274H1002.51V263.55L993.764 274H992.164ZM1019 274L1013.6 267.5L1015.08 266.625L1021.1 274H1019ZM1009.38 274V260.875H1011.15V274H1009.38ZM1010.6 268.15V266.625H1014.83V268.15H1010.6ZM1015.23 267.625L1013.58 267.375L1018.8 260.875H1020.73L1015.23 267.625ZM1035.94 274.125C1034.64 274.125 1033.48 273.842 1032.44 273.275C1031.43 272.692 1030.63 271.9 1030.04 270.9C1029.46 269.883 1029.17 268.725 1029.17 267.425C1029.17 266.108 1029.46 264.95 1030.04 263.95C1030.63 262.95 1031.43 262.167 1032.44 261.6C1033.48 261.033 1034.64 260.75 1035.94 260.75C1037.06 260.75 1038.07 260.967 1038.97 261.4C1039.87 261.833 1040.58 262.483 1041.09 263.35L1039.77 264.25C1039.32 263.583 1038.76 263.092 1038.09 262.775C1037.43 262.458 1036.7 262.3 1035.92 262.3C1034.99 262.3 1034.14 262.517 1033.39 262.95C1032.64 263.367 1032.05 263.958 1031.62 264.725C1031.19 265.492 1030.97 266.392 1030.97 267.425C1030.97 268.458 1031.19 269.358 1031.62 270.125C1032.05 270.892 1032.64 271.492 1033.39 271.925C1034.14 272.342 1034.99 272.55 1035.92 272.55C1036.7 272.55 1037.43 272.392 1038.09 272.075C1038.76 271.758 1039.32 271.275 1039.77 270.625L1041.09 271.525C1040.58 272.375 1039.87 273.025 1038.97 273.475C1038.07 273.908 1037.06 274.125 1035.94 274.125ZM1049.71 274.125C1048.45 274.125 1047.3 273.842 1046.29 273.275C1045.29 272.692 1044.5 271.9 1043.91 270.9C1043.33 269.883 1043.04 268.725 1043.04 267.425C1043.04 266.108 1043.33 264.95 1043.91 263.95C1044.5 262.95 1045.29 262.167 1046.29 261.6C1047.29 261.033 1048.43 260.75 1049.71 260.75C1051.01 260.75 1052.16 261.033 1053.16 261.6C1054.18 262.167 1054.97 262.95 1055.54 263.95C1056.12 264.95 1056.41 266.108 1056.41 267.425C1056.41 268.725 1056.12 269.883 1055.54 270.9C1054.97 271.9 1054.18 272.692 1053.16 273.275C1052.15 273.842 1051 274.125 1049.71 274.125ZM1049.71 272.55C1050.66 272.55 1051.5 272.342 1052.24 271.925C1052.97 271.492 1053.55 270.892 1053.96 270.125C1054.4 269.342 1054.61 268.442 1054.61 267.425C1054.61 266.392 1054.4 265.492 1053.96 264.725C1053.55 263.958 1052.97 263.367 1052.24 262.95C1051.5 262.517 1050.67 262.3 1049.74 262.3C1048.8 262.3 1047.97 262.517 1047.24 262.95C1046.5 263.367 1045.92 263.958 1045.49 264.725C1045.05 265.492 1044.84 266.392 1044.84 267.425C1044.84 268.442 1045.05 269.342 1045.49 270.125C1045.92 270.892 1046.5 271.492 1047.24 271.925C1047.97 272.342 1048.8 272.55 1049.71 272.55ZM1072.25 274.125C1070.95 274.125 1069.78 273.842 1068.75 273.275C1067.73 272.692 1066.93 271.9 1066.35 270.9C1065.77 269.883 1065.47 268.725 1065.47 267.425C1065.47 266.108 1065.77 264.95 1066.35 263.95C1066.93 262.95 1067.73 262.167 1068.75 261.6C1069.78 261.033 1070.95 260.75 1072.25 260.75C1073.37 260.75 1074.37 260.967 1075.27 261.4C1076.17 261.833 1076.88 262.483 1077.4 263.35L1076.07 264.25C1075.62 263.583 1075.07 263.092 1074.4 262.775C1073.73 262.458 1073.01 262.3 1072.22 262.3C1071.29 262.3 1070.45 262.517 1069.7 262.95C1068.95 263.367 1068.36 263.958 1067.92 264.725C1067.49 265.492 1067.27 266.392 1067.27 267.425C1067.27 268.458 1067.49 269.358 1067.92 270.125C1068.36 270.892 1068.95 271.492 1069.7 271.925C1070.45 272.342 1071.29 272.55 1072.22 272.55C1073.01 272.55 1073.73 272.392 1074.4 272.075C1075.07 271.758 1075.62 271.275 1076.07 270.625L1077.4 271.525C1076.88 272.375 1076.17 273.025 1075.27 273.475C1074.37 273.908 1073.37 274.125 1072.25 274.125ZM1083.09 274V261.95L1083.54 262.425H1078.12V260.875H1089.84V262.425H1084.42L1084.87 261.95V274H1083.09ZM1100.56 274V271.1L1100.48 270.625V265.775C1100.48 264.658 1100.17 263.8 1099.53 263.2C1098.92 262.6 1097.99 262.3 1096.76 262.3C1095.91 262.3 1095.1 262.442 1094.33 262.725C1093.57 263.008 1092.92 263.383 1092.38 263.85L1091.58 262.525C1092.25 261.958 1093.05 261.525 1093.98 261.225C1094.92 260.908 1095.9 260.75 1096.93 260.75C1098.63 260.75 1099.94 261.175 1100.86 262.025C1101.79 262.858 1102.26 264.133 1102.26 265.85V274H1100.56ZM1096.03 274.125C1095.05 274.125 1094.19 273.967 1093.46 273.65C1092.74 273.317 1092.19 272.867 1091.81 272.3C1091.42 271.717 1091.23 271.05 1091.23 270.3C1091.23 269.617 1091.39 269 1091.71 268.45C1092.04 267.883 1092.57 267.433 1093.31 267.1C1094.06 266.75 1095.06 266.575 1096.31 266.575H1100.83V267.9H1096.36C1095.09 267.9 1094.21 268.125 1093.71 268.575C1093.22 269.025 1092.98 269.583 1092.98 270.25C1092.98 271 1093.27 271.6 1093.86 272.05C1094.44 272.5 1095.26 272.725 1096.31 272.725C1097.31 272.725 1098.17 272.5 1098.88 272.05C1099.62 271.583 1100.15 270.917 1100.48 270.05L1100.88 271.275C1100.55 272.142 1099.97 272.833 1099.13 273.35C1098.32 273.867 1097.28 274.125 1096.03 274.125ZM1122.56 274L1118.06 267.5L1119.53 266.625L1124.68 274H1122.56ZM1115.11 268.15V266.625H1119.26V268.15H1115.11ZM1119.71 267.625L1118.01 267.375L1122.38 260.875H1124.31L1119.71 267.625ZM1107.01 274H1104.88L1110.03 266.625L1111.48 267.5L1107.01 274ZM1115.66 274H1113.88V260.875H1115.66V274ZM1114.43 268.15H1110.31V266.625H1114.43V268.15ZM1109.88 267.625L1105.26 260.875H1107.18L1111.53 267.375L1109.88 267.625ZM1132.8 274.125C1131.43 274.125 1130.23 273.842 1129.2 273.275C1128.17 272.692 1127.36 271.9 1126.77 270.9C1126.19 269.883 1125.9 268.725 1125.9 267.425C1125.9 266.125 1126.17 264.975 1126.72 263.975C1127.29 262.975 1128.06 262.192 1129.02 261.625C1130.01 261.042 1131.11 260.75 1132.32 260.75C1133.56 260.75 1134.65 261.033 1135.6 261.6C1136.57 262.15 1137.32 262.933 1137.87 263.95C1138.42 264.95 1138.7 266.108 1138.7 267.425C1138.7 267.508 1138.69 267.6 1138.67 267.7C1138.67 267.783 1138.67 267.875 1138.67 267.975H1127.25V266.65H1137.72L1137.02 267.175C1137.02 266.225 1136.82 265.383 1136.4 264.65C1136 263.9 1135.45 263.317 1134.75 262.9C1134.05 262.483 1133.24 262.275 1132.32 262.275C1131.42 262.275 1130.62 262.483 1129.9 262.9C1129.18 263.317 1128.62 263.9 1128.22 264.65C1127.82 265.4 1127.62 266.258 1127.62 267.225V267.5C1127.62 268.5 1127.84 269.383 1128.27 270.15C1128.72 270.9 1129.34 271.492 1130.12 271.925C1130.92 272.342 1131.83 272.55 1132.85 272.55C1133.65 272.55 1134.39 272.408 1135.07 272.125C1135.77 271.842 1136.37 271.408 1136.87 270.825L1137.87 271.975C1137.29 272.675 1136.56 273.208 1135.67 273.575C1134.81 273.942 1133.85 274.125 1132.8 274.125ZM1142.63 274V260.875H1144.43L1150.38 270.95H1149.63L1155.68 260.875H1157.33V274H1155.7V262.9L1156.03 263.05L1150.38 272.4H1149.58L1143.88 262.95L1144.25 262.875V274H1142.63ZM864.514 304.3C863.297 304.3 862.089 304.142 860.889 303.825C859.689 303.492 858.672 303.025 857.839 302.425L859.414 299.325C860.08 299.808 860.855 300.192 861.739 300.475C862.622 300.758 863.514 300.9 864.414 300.9C865.43 300.9 866.23 300.7 866.814 300.3C867.397 299.9 867.689 299.35 867.689 298.65C867.689 297.983 867.43 297.458 866.914 297.075C866.397 296.692 865.564 296.5 864.414 296.5H862.564V293.825L867.439 288.3L867.889 289.75H858.714V286.5H870.964V289.125L866.114 294.65L864.064 293.475H865.239C867.389 293.475 869.014 293.958 870.114 294.925C871.214 295.892 871.764 297.133 871.764 298.65C871.764 299.633 871.505 300.558 870.989 301.425C870.472 302.275 869.68 302.967 868.614 303.5C867.547 304.033 866.18 304.3 864.514 304.3ZM881.727 304V290.875H891.027V292.425H883.052L883.502 291.975V304H881.727ZM898.382 304.125C897.115 304.125 895.973 303.842 894.957 303.275C893.957 302.692 893.165 301.9 892.582 300.9C891.998 299.883 891.707 298.725 891.707 297.425C891.707 296.108 891.998 294.95 892.582 293.95C893.165 292.95 893.957 292.167 894.957 291.6C895.957 291.033 897.098 290.75 898.382 290.75C899.682 290.75 900.832 291.033 901.832 291.6C902.848 292.167 903.64 292.95 904.207 293.95C904.79 294.95 905.082 296.108 905.082 297.425C905.082 298.725 904.79 299.883 904.207 300.9C903.64 301.9 902.848 302.692 901.832 303.275C900.815 303.842 899.665 304.125 898.382 304.125ZM898.382 302.55C899.332 302.55 900.173 302.342 900.907 301.925C901.64 301.492 902.215 300.892 902.632 300.125C903.065 299.342 903.282 298.442 903.282 297.425C903.282 296.392 903.065 295.492 902.632 294.725C902.215 293.958 901.64 293.367 900.907 292.95C900.173 292.517 899.34 292.3 898.407 292.3C897.473 292.3 896.64 292.517 895.907 292.95C895.173 293.367 894.59 293.958 894.157 294.725C893.723 295.492 893.507 296.392 893.507 297.425C893.507 298.442 893.723 299.342 894.157 300.125C894.59 300.892 895.173 301.492 895.907 301.925C896.64 302.342 897.465 302.55 898.382 302.55ZM917.802 303.15V292.425H911.477L911.327 295.35C911.294 296.233 911.235 297.1 911.152 297.95C911.085 298.8 910.96 299.583 910.777 300.3C910.61 301 910.369 301.575 910.052 302.025C909.735 302.458 909.327 302.708 908.827 302.775L907.052 302.45C907.569 302.467 907.994 302.283 908.327 301.9C908.66 301.5 908.919 300.958 909.102 300.275C909.285 299.592 909.419 298.817 909.502 297.95C909.585 297.067 909.652 296.167 909.702 295.25L909.877 290.875H919.577V303.15H917.802ZM906.502 307.175V302.45H921.627V307.175H919.952V304H908.177V307.175H906.502ZM933.236 304V301.1L933.161 300.625V295.775C933.161 294.658 932.844 293.8 932.211 293.2C931.594 292.6 930.669 292.3 929.436 292.3C928.586 292.3 927.778 292.442 927.011 292.725C926.244 293.008 925.594 293.383 925.061 293.85L924.261 292.525C924.928 291.958 925.728 291.525 926.661 291.225C927.594 290.908 928.578 290.75 929.611 290.75C931.311 290.75 932.619 291.175 933.536 292.025C934.469 292.858 934.936 294.133 934.936 295.85V304H933.236ZM928.711 304.125C927.728 304.125 926.869 303.967 926.136 303.65C925.419 303.317 924.869 302.867 924.486 302.3C924.103 301.717 923.911 301.05 923.911 300.3C923.911 299.617 924.069 299 924.386 298.45C924.719 297.883 925.253 297.433 925.986 297.1C926.736 296.75 927.736 296.575 928.986 296.575H933.511V297.9H929.036C927.769 297.9 926.886 298.125 926.386 298.575C925.903 299.025 925.661 299.583 925.661 300.25C925.661 301 925.953 301.6 926.536 302.05C927.119 302.5 927.936 302.725 928.986 302.725C929.986 302.725 930.844 302.5 931.561 302.05C932.294 301.583 932.828 300.917 933.161 300.05L933.561 301.275C933.228 302.142 932.644 302.833 931.811 303.35C930.994 303.867 929.961 304.125 928.711 304.125Z" fill="white"/>
</g>
<defs>
<filter id="filter0_b_1_2" x="-50" y="-50" width="200" height="600" filterUnits="userSpaceOnUse" color-interpolation-filters="sRGB">
<feFlood flood-opacity="0" result="BackgroundImageFix"/>
<feGaussianBlur in="BackgroundImageFix" stdDeviation="25"/>
<feComposite in2="SourceAlpha" operator="in" result="effect1_backgroundBlur_1_2"/>
<feBlend mode="normal" in="SourceGraphic" in2="effect1_backgroundBlur_1_2" result="shape"/>
</filter>
<linearGradient id="paint0_linear_1_2" x1="1275.56" y1="345.24" x2="1376" y2="493.5" gradientUnits="userSpaceOnUse">
<stop stop-color="#C48423"/>
<stop offset="1" stop-color="#DB2370"/>
</linearGradient>
<linearGradient id="paint1_linear_1_2" x1="595.5" y1="437.62" x2="476" y2="528.62" gradientUnits="userSpaceOnUse">
<stop stop-color="#D48A1C"/>
<stop offset="1" stop-color="#D31A89"/>
</linearGradient>
<linearGradient id="paint2_linear_1_2" x1="1255.36" y1="71.363" x2="1373.45" y2="-21.4535" gradientUnits="userSpaceOnUse">
<stop stop-color="#D48A1C"/>
<stop offset="1" stop-color="#D31A89"/>
</linearGradient>
<linearGradient id="paint3_linear_1_2" x1="102.934" y1="-56.2908" x2="482.5" y2="351" gradientUnits="userSpaceOnUse">
<stop stop-color="#C48423"/>
<stop offset="1" stop-color="#DB2370"/>
</linearGradient>
<linearGradient id="paint4_linear_1_2" x1="29.8047" y1="42.3697" x2="54.6579" y2="67.176" gradientUnits="userSpaceOnUse">
<stop stop-color="#387EB8"/>
<stop offset="1" stop-color="#366994"/>
</linearGradient>
<linearGradient id="paint5_linear_1_2" x1="45.014" y1="58.2337" x2="71.7001" y2="83.6667" gradientUnits="userSpaceOnUse">
<stop stop-color="#FFE052"/>
<stop offset="1" stop-color="#FFC331"/>
</linearGradient>
<clipPath id="clip0_1_2">
<rect width="1500" height="500" fill="white"/>
</clipPath>
</defs>
</svg>
